{"title":"Offender 2012 BRRip 480p 350MB x264 AAC - VYTO [P2PDL]","uid":7976667,"size":382095555,"categoryP":"video","categoryS":"movies","magnet":"?xt=urn:btih:764adbe53e08467744e3ef224edbe4d7b3c0dc32&amp;dn=Offender+2012+BRRip+480p+350MB+x264+AAC+-+VYTO+%5BP2PDL%5D&amp;tr=udp%3A%2F%2Ftracker.openbittorrent.com%3A80&amp;tr=udp%3A%2F%2Fopen.demonii.com%3A1337&amp;tr=udp%3A%2F%2Ftracker.coppersurfer.tk%3A6969&amp;tr=udp%3A%2F%2Fexodus.desync.com%3A6969","seeders":1,"leechers":0,"uploader":"ValidusVyto","files":-1,"time":1357013060,"description":"Offender 2012 BRRip 480p 350MB x264 AAC - VYTO [P2PDL]\n\n\t\t\t\t\t\nGenre: Thriller\nPlot: Justice needs to be served at Britain's most notorious young offenders institute.  \nDirector: Ron Scalpello\nStars: Joe Cole, English Frank and Kimberley Nixon.\nRated: N/a &lt;a href=&quot;\nhttp://cinemahouse.in/movie/214/Offender&quot; rel=&quot;nofollow&quot; target=&quot;_NEW&quot;&gt;\nhttp://cinemahouse.in/movie/214/Offender&lt;/a&gt; &lt;a href=&quot;\nhttp://www.imdb.com/title/tt1821427/&quot; rel=&quot;nofollow&quot; target=&quot;_NEW&quot;&gt;\nhttp://www.imdb.com/title/tt1821427/&lt;/a&gt;\n\nGeneral\nMovie name                     : Offender 2012\nFormat                         : MPEG-4\nFormat profile                 : Base Media\nCodec ID                       : isom\nFile size                      : 351 MiB\nDuration                       : 1h 41mn\nOverall bit rate mode          : Variable\nOverall bit rate               : 483 Kbps\nSource                         : 720p.BluRay.x264-SONiDO(Thanks)\n\nVideo\nID                             : 1\nFormat                         : AVC\nFormat/Info                    : Advanced Video Codec\nDuration                       : 1h 41mn\nBit rate                       : 424 Kbps\nWidth                          : 640 pixels\nHeight                         : 352 pixels\nDisplay aspect ratio           : 16:9\nFrame rate mode                : Constant\nFrame rate                     : 23.976 fps\nStream size                    : 308 MiB (88%)\nWriting library                : x264 core 129 r2230\n\nAudio\nID                             : 2\nFormat                         : AAC\nFormat/Info                    : Advanced Audio Codec\nFormat profile                 : HE-AAC / LC\nCodec ID                       : 40\nDuration                       : 1h 41mn\nBit rate mode                  : Variable\nBit rate                       : 56.0 Kbps\nMaximum bit rate               : 63.0 Kbps\nChannel(s)                     : 2 channels\nChannel positions              : Front: L R\nSampling rate                  : 44.1 KHz / 22.05 KHz\nLanguage                       : English\nStream size                    : 40.8 MiB (12%)\n\n\nSubtitle                       : Yes(English)\n\n\nScreens:\n &lt;a href=&quot;\nhttp://www.shotpix.com/images/33030886447026527538.png&quot; rel=&quot;nofollow&quot; target=&quot;_NEW&quot;&gt;\nhttp://www.shotpix.com/images/33030886447026527538.png&lt;/a&gt; &lt;a href=&quot;\nhttp://www.shotpix.com/images/67940004511776237898.png&quot; rel=&quot;nofollow&quot; target=&quot;_NEW&quot;&gt;\nhttp://www.shotpix.com/images/67940004511776237898.png&lt;/a&gt; &lt;a href=&quot;\nhttp://www.shotpix.com/images/69277939952383640700.png&quot; rel=&quot;nofollow&quot; target=&quot;_NEW&quot;&gt;\nhttp://www.shotpix.com/images/69277939952383640700.png&lt;/a&gt; &lt;a href=&quot;\nhttp://www.shotpix.com/images/66564204413837126737.png&quot; rel=&quot;nofollow&quot; target=&quot;_NEW&quot;&gt;\nhttp://www.shotpix.com/images/66564204413837126737.png&lt;/a&gt; &lt;a href=&quot;\nhttp://www.shotpix.com/images/70575468501013018763.png&quot; rel=&quot;nofollow&quot; target=&quot;_NEW&quot;&gt;\nhttp://www.shotpix.com/images/70575468501013018763.png&lt;/a&gt; &lt;a href=&quot;\nhttp://www.shotpix.com/images/24235979826157942401.png&quot; rel=&quot;nofollow&quot; target=&quot;_NEW&quot;&gt;\nhttp://www.shotpix.com/images/24235979826157942401.png&lt;/a&gt;\n\n\n----------------------------------------------------------------------------------------------------\n\n\nRecommend to you to use latest version of VLC player. Install K-Lite Codec Pack or shark007 codecs\nin case of any kind of problem in playback (For non-VLC Media Player users). Alternatively, install\nCore AVC codecs, the fastest decoder that there is coupled with Community Center Codec Pack and play\non Windows Media Player Classic. Check sample to be sure.\nEnjoy!\n\nGreets to: Vitamin_X, a2zRG, srkfan, MgB, Stumpie1971, Sheychi and staff members at ExtraTorrent, TPB,\nKAT, 1337x, PublicHD, Ahashare, BTScene, SilverTorrent, LimeTorrents, TorrentMafia, P2PDL, and all\nothers.\n\nEncoder Notes: Looking For Early Access To Anything You Can Provide DVDScr, R5, DVDR, BluRay, Direct\nAudio, Early Music Releases, Seedboxes, Dedicated Servers anything u can provide, Advance / Promo CDs/\nDVDs. If You Got anything to offer contact me at &quot;&lt;a class=&quot;__cf_email__&quot; href=&quot;/cdn-cgi/l/email-protection&quot; data-cfemail=&quot;6111130621091412094f020e0c&quot;&gt;[email&amp;#160;protected]&lt;/a&gt;&lt;script cf-hash='f9e31' type=&quot;text/javascript&quot;&gt;\n/* &lt;![CDATA[ */!function(){try{var t=&quot;currentScript&quot;in document?document.currentScript:function(){for(var t=document.getElementsByTagName(&quot;script&quot;),e=t.length;e--;)if(t[e].getAttribute(&quot;cf-hash&quot;))return t[e]}();if(t&amp;&amp;t.previousSibling){var e,r,n,i,c=t.previousSibling,a=c.getAttribute(&quot;data-cfemail&quot;);if(a){for(e=&quot;&quot;,r=parseInt(a.substr(0,2),16),n=2;a.length-n;n+=2)i=parseInt(a.substr(n,2),16)^r,e+=String.fromCharCode(i);e=document.createTextNode(e),c.parentNode.replaceChild(e,c)}}}catch(u){}}();/* ]]&gt; */&lt;/script&gt;&quot;.\n\nFacebook Fan Page: www . facebook . com / p2pdl","torrent":{"xt":"urn:btih:764adbe53e08467744e3ef224edbe4d7b3c0dc32","amp;dn":"Offender+2012+BRRip+480p+350MB+x264+AAC+-+VYTO+%5BP2PDL%5D","amp;tr":["udp%3A%2F%2Ftracker.openbittorrent.com%3A80","udp%3A%2F%2Fopen.demonii.com%3A1337","udp%3A%2F%2Ftracker.coppersurfer.tk%3A6969","udp%3A%2F%2Fexodus.desync.com%3A6969"],"infoHash":"764adbe53e08467744e3ef224edbe4d7b3c0dc32","infoHashBuffer":{"type":"Buffer","data":[118,74,219,229,62,8,70,119,68,227,239,34,78,219,228,215,179,192,220,50]},"announce":[],"urlList":[]}}